<?xml version="1.0" encoding="UTF-8" standalone="no"?>
<!-- Created with Inkscape (http://www.inkscape.org/) -->

<svg
   xmlns:dc="http://purl.org/dc/elements/1.1/"
   xmlns:cc="http://creativecommons.org/ns#"
   xmlns:rdf="http://www.w3.org/1999/02/22-rdf-syntax-ns#"
   xmlns:svg="http://www.w3.org/2000/svg"
   xmlns="http://www.w3.org/2000/svg"
   xmlns:sodipodi="http://sodipodi.sourceforge.net/DTD/sodipodi-0.dtd"
   xmlns:inkscape="http://www.inkscape.org/namespaces/inkscape"
   width="210mm"
   height="297mm"
   viewBox="0 0 210 297"
   version="1.1"
   id="svg8627"
   inkscape:version="0.92.0 r15299"
   sodipodi:docname="average_checked.svg">
  <defs
     id="defs8621" />
  <sodipodi:namedview
     id="base"
     pagecolor="#ffffff"
     bordercolor="#666666"
     borderopacity="1.0"
     inkscape:pageopacity="0.0"
     inkscape:pageshadow="2"
     inkscape:zoom="0.35"
     inkscape:cx="-540"
     inkscape:cy="560"
     inkscape:document-units="mm"
     inkscape:current-layer="layer1"
     showgrid="false"
     inkscape:window-width="1920"
     inkscape:window-height="1001"
     inkscape:window-x="-9"
     inkscape:window-y="-9"
     inkscape:window-maximized="1" />
  <metadata
     id="metadata8624">
    <rdf:RDF>
      <cc:Work
         rdf:about="">
        <dc:format>image/svg+xml</dc:format>
        <dc:type
           rdf:resource="http://purl.org/dc/dcmitype/StillImage" />
        <dc:title></dc:title>
      </cc:Work>
    </rdf:RDF>
  </metadata>
  <g
     inkscape:label="Calque 1"
     inkscape:groupmode="layer"
     id="layer1">
    <g
       transform="matrix(0.41702017,0,0,0.37384208,-1.302013,38.766667)"
       id="g4530"
       style="fill:#ff6600">
      <g
         id="g4528"
         style="fill:#ff6600">
        <path
           inkscape:connector-curvature="0"
           d="M 489.739,0 H 22.261 C 13.04,0 5.565,7.475 5.565,16.696 V 395.13 c 0,9.22 7.475,16.696 16.696,16.696 h 183.652 v 66.783 h -61.217 c -9.22,0 -16.696,7.475 -16.696,16.696 0,9.221 7.475,16.695 16.696,16.695 h 77.913 66.783 77.913 c 9.22,0 16.696,-7.475 16.696,-16.696 0,-9.221 -7.475,-16.696 -16.696,-16.696 H 306.088 V 411.825 H 489.74 c 9.22,0 16.696,-7.475 16.696,-16.696 V 16.696 C 506.435,7.475 498.96,0 489.739,0 Z M 272.696,478.609 h -33.391 v -66.783 h 33.391 z M 473.043,378.435 H 289.391 222.608 38.957 v -33.391 h 434.087 v 33.391 z m 0,-66.783 H 38.957 V 33.391 h 434.087 v 278.261 z"
           id="path4526"
           style="fill:#ff6600" />
      </g>
    </g>
    <g
       transform="matrix(0.41702017,0,0,0.37384208,-1.302013,38.766667)"
       id="g4536"
       style="fill:#ff6600">
      <g
         id="g4534"
         style="fill:#ff6600">
        <path
           inkscape:connector-curvature="0"
           d="M 155.826,66.783 H 89.044 c -9.22,0 -16.696,7.475 -16.696,16.696 v 178.087 c 0,9.22 7.475,16.696 16.696,16.696 h 66.783 c 9.22,0 16.696,-7.475 16.696,-16.696 V 83.478 c -0.001,-9.22 -7.476,-16.695 -16.697,-16.695 z M 139.13,244.87 H 105.739 V 100.174 h 33.391 z"
           id="path4532"
           style="fill:#ff6600" />
      </g>
    </g>
    <g
       transform="matrix(0.41702017,0,0,0.37384208,-1.302013,38.766667)"
       id="g4542"
       style="fill:#ff6600">
      <g
         id="g4540"
         style="fill:#ff6600">
        <path
           inkscape:connector-curvature="0"
           d="m 289.391,100.174 h -66.783 c -9.22,0 -16.696,7.475 -16.696,16.696 v 144.696 c 0,9.22 7.475,16.696 16.696,16.696 h 66.783 c 9.22,0 16.696,-7.475 16.696,-16.696 V 116.87 c 0,-9.221 -7.475,-16.696 -16.696,-16.696 z M 272.696,244.87 H 239.305 V 133.565 h 33.391 z"
           id="path4538"
           style="fill:#ff6600" />
      </g>
    </g>
    <g
       transform="matrix(0.41702017,0,0,0.37384208,-1.302013,38.766667)"
       id="g4548"
       style="fill:#ff6600">
      <g
         id="g4546"
         style="fill:#ff6600">
        <path
           inkscape:connector-curvature="0"
           d="m 422.957,166.957 h -66.783 c -9.22,0 -16.696,7.475 -16.696,16.696 v 77.913 c 0,9.22 7.475,16.696 16.696,16.696 h 66.783 c 9.22,0 16.696,-7.475 16.696,-16.696 v -77.913 c -0.001,-9.221 -7.476,-16.696 -16.696,-16.696 z M 406.261,244.87 H 372.87 v -44.522 h 33.391 z"
           id="path4544"
           style="fill:#ff6600" />
      </g>
    </g>
  </g>
</svg>
