<?xml version="1.0" encoding="UTF-8" standalone="no"?>
<!-- Generator: Adobe Illustrator 16.0.0, SVG Export Plug-In . SVG Version: 6.00 Build 0)  -->

<svg
   xmlns:dc="http://purl.org/dc/elements/1.1/"
   xmlns:cc="http://creativecommons.org/ns#"
   xmlns:rdf="http://www.w3.org/1999/02/22-rdf-syntax-ns#"
   xmlns:svg="http://www.w3.org/2000/svg"
   xmlns="http://www.w3.org/2000/svg"
   xmlns:sodipodi="http://sodipodi.sourceforge.net/DTD/sodipodi-0.dtd"
   xmlns:inkscape="http://www.inkscape.org/namespaces/inkscape"
   version="1.1"
   id="Capa_1"
   x="0px"
   y="0px"
   width="512px"
   height="512px"
   viewBox="0 0 512 512"
   style="enable-background:new 0 0 512 512;"
   xml:space="preserve"
   sodipodi:docname="triee.svg"
   inkscape:version="0.92.0 r15299"><metadata
     id="metadata4524"><rdf:RDF><cc:Work
         rdf:about=""><dc:format>image/svg+xml</dc:format><dc:type
           rdf:resource="http://purl.org/dc/dcmitype/StillImage" /></cc:Work></rdf:RDF></metadata><defs
     id="defs4522" /><sodipodi:namedview
     pagecolor="#ffffff"
     bordercolor="#666666"
     borderopacity="1"
     objecttolerance="10"
     gridtolerance="10"
     guidetolerance="10"
     inkscape:pageopacity="0"
     inkscape:pageshadow="2"
     inkscape:window-width="1920"
     inkscape:window-height="1001"
     id="namedview4520"
     showgrid="false"
     inkscape:zoom="1.578125"
     inkscape:cx="256"
     inkscape:cy="256"
     inkscape:window-x="-9"
     inkscape:window-y="-9"
     inkscape:window-maximized="1"
     inkscape:current-layer="Capa_1" /><g
     id="g4487"
     style="fill:#ff9955"><path
       d="M512,480v32H32H0v-32V0h32v480H512z M448,0L322.031,20.594l30.281,37.031l-266.438,218l20.25,24.75l266.469-218l30.281,37   L448,0z M413.219,182.563L384,146.844V448h64V90.531L413.219,182.563z M192,271.469V448h64V219.125L192,271.469z M101.609,345.406   L96,338.531V448h64V297.625L101.609,345.406z M288,192.938V448h64V140.563L288,192.938z"
       id="path4485"
       style="fill:#ff9955" /></g><g
     id="g4489" /><g
     id="g4491" /><g
     id="g4493" /><g
     id="g4495" /><g
     id="g4497" /><g
     id="g4499" /><g
     id="g4501" /><g
     id="g4503" /><g
     id="g4505" /><g
     id="g4507" /><g
     id="g4509" /><g
     id="g4511" /><g
     id="g4513" /><g
     id="g4515" /><g
     id="g4517" /></svg>